<?xml version="1.0" encoding="UTF-8" standalone="no"?>
<!-- Created with Inkscape (http://www.inkscape.org/) -->

<svg
   xmlns:osb="http://www.openswatchbook.org/uri/2009/osb"
   xmlns:dc="http://purl.org/dc/elements/1.1/"
   xmlns:cc="http://creativecommons.org/ns#"
   xmlns:rdf="http://www.w3.org/1999/02/22-rdf-syntax-ns#"
   xmlns:svg="http://www.w3.org/2000/svg"
   xmlns="http://www.w3.org/2000/svg"
   xmlns:sodipodi="http://sodipodi.sourceforge.net/DTD/sodipodi-0.dtd"
   xmlns:inkscape="http://www.inkscape.org/namespaces/inkscape"
   width="512"
   height="512"
   id="svg2"
   version="1.1"
   inkscape:version="0.48.1 r9760"
   sodipodi:docname="emblem01.svg"
   inkscape:export-filename="/home/mato/DATA/3D/Projects/PMCA/PMCAv0.0.6r5/parts/blend/emblem01.png"
   inkscape:export-xdpi="90"
   inkscape:export-ydpi="90">
  <defs
     id="defs4">
    <linearGradient
       id="linearGradient3840">
      <stop
         style="stop-color:#efd180;stop-opacity:1;"
         offset="0"
         id="stop3842" />
      <stop
         style="stop-color:#efd180;stop-opacity:0;"
         offset="1"
         id="stop3844" />
    </linearGradient>
    <linearGradient
       inkscape:collect="always"
       id="linearGradient3828"
       osb:paint="gradient">
      <stop
         style="stop-color:#efd180;stop-opacity:1;"
         offset="0"
         id="stop3830" />
      <stop
         style="stop-color:#efd180;stop-opacity:0;"
         offset="1"
         id="stop3832" />
    </linearGradient>
  </defs>
  <sodipodi:namedview
     id="base"
     pagecolor="#000000"
     bordercolor="#666666"
     borderopacity="1.0"
     inkscape:pageopacity="0"
     inkscape:pageshadow="2"
     inkscape:zoom="0.92983283"
     inkscape:cx="105.92492"
     inkscape:cy="142.08279"
     inkscape:document-units="px"
     inkscape:current-layer="layer1"
     showgrid="false"
     inkscape:window-width="1920"
     inkscape:window-height="1027"
     inkscape:window-x="0"
     inkscape:window-y="26"
     inkscape:window-maximized="1"
     showguides="true"
     inkscape:guide-bbox="true" />
  <metadata
     id="metadata7">
    <rdf:RDF>
      <cc:Work
         rdf:about="">
        <dc:format>image/svg+xml</dc:format>
        <dc:type
           rdf:resource="http://purl.org/dc/dcmitype/StillImage" />
        <dc:title></dc:title>
      </cc:Work>
    </rdf:RDF>
  </metadata>
  <g
     inkscape:label="レイヤー 1"
     inkscape:groupmode="layer"
     id="layer1"
     transform="translate(0,-540.36218)">
    <path
       transform="matrix(1.0385134,0,0,1.0385134,-9.8437701,-30.746964)"
       sodipodi:type="inkscape:offset"
       inkscape:radius="31.979637"
       inkscape:original="M 113.09375 616.9375 C 113.09375 616.9375 111.67933 843.61864 113.09375 885.34375 C 114.50816 927.06886 255.9375 979.75 255.9375 979.75 C 255.9375 979.75 399.48846 920.70401 398.78125 885.34375 C 398.07406 849.98349 398.78125 616.9375 398.78125 616.9375 L 113.09375 616.9375 z "
       style="fill:#4a4c54;stroke:#000000;stroke-width:0.83663403999999986px;stroke-linecap:butt;stroke-linejoin:miter;stroke-opacity:1;fill-opacity:1"
       id="path4342-1"
       d="M 113.09375,584.96875 A 31.982835,31.982835 0 0 0 81.125,616.75 c 0,0 -1.571743,223.32141 0,269.6875 0.957239,28.23855 18.559331,43.08631 34.875,56.1875 16.31567,13.10119 35.49973,24.21856 54.34375,33.96875 37.68803,19.50038 74.4375,33.12505 74.4375,33.12505 a 31.982835,31.982835 0 0 0 23.3125,-0.4063 c 0,0 37.00366,-15.15473 74.625,-35.3125 18.81067,-10.07889 37.84483,-21.28317 53.8125,-33.84375 7.98384,-6.28029 15.26711,-12.82391 21.625,-21.0625 6.35789,-8.23859 12.90018,-19.05361 12.59375,-34.375 -0.6425,-32.12567 0,-267.6875 0,-267.6875 a 31.982835,31.982835 0 0 0 -31.96875,-32.0625 l -285.6875,0 z" />
    <path
       style="fill:#efd180;fill-opacity:1;fill-rule:nonzero;stroke:#000000;stroke-width:2.46895337;stroke-linejoin:round;stroke-miterlimit:4;stroke-opacity:0.0982143;stroke-dasharray:none;stroke-dashoffset:0"
       d="M 149.71875 288.84375 A 9.2450243 9.2450243 0 0 1 145.90625 293.5625 C 142.98607 295.36442 140.31016 297.09613 138.9375 298.125 C 134.11551 301.73928 129.34583 307.48144 126.3125 311.28125 L 131.78125 324.25 C 136.60235 324.78743 144.03058 325.47958 150 324.625 C 151.95887 324.34459 155.25245 323.62208 158.875 322.75 A 9.2450243 9.2450243 0 0 1 167.6875 325.34375 A 9.2450243 9.2450243 0 0 1 166.25 333.1875 C 163.91859 336.38263 161.84459 339.36356 160.875 341 C 157.79644 346.19583 155.56903 353.31011 154.21875 357.96875 L 164.1875 367.90625 C 168.84614 366.55597 175.96042 364.32857 181.15625 361.25 C 182.85103 360.24584 185.80653 358.21359 188.96875 355.90625 A 9.2450243 9.2450243 0 0 1 197.4375 354.6875 A 9.2450243 9.2450243 0 0 1 199.53125 362.96875 C 198.60003 366.81286 197.8008 370.39833 197.53125 372.28125 C 196.67539 378.25969 197.33971 385.648 197.875 390.46875 L 210.90625 395.84375 C 214.69354 392.81347 220.37779 388.05133 224 383.21875 C 225.18149 381.64245 227.14896 378.59183 229.1875 375.25 A 9.2450243 9.2450243 0 0 1 235.8125 370.9375 A 9.2450243 9.2450243 0 0 1 241.65625 378.125 C 242.23683 381.80546 242.85315 385.1139 243.34375 387.03125 C 244.83862 392.87328 248.31476 399.47028 250.65625 403.71875 L 264.75 403.71875 C 267.08475 399.46656 270.53475 392.87965 272.03125 387.03125 C 272.50426 385.18264 273.12865 382.17193 273.65625 378.90625 A 9.2450243 9.2450243 0 0 1 280.53125 371.4375 A 9.2450243 9.2450243 0 0 1 286.375 375.625 C 288.31984 378.80312 290.18801 381.63508 291.375 383.21875 C 294.99174 388.04401 300.71093 392.78348 304.5 395.8125 L 317.5 390.40625 C 318.02979 385.58426 318.69924 378.19464 317.84375 372.21875 C 317.57331 370.32984 317.01229 367.344 316.25 364.125 A 9.2450243 9.2450243 0 0 1 317.4375 357 C 317.56076 356.9242 317.68944 356.85759 317.8125 356.78125 A 9.2450243 9.2450243 0 0 1 328.0625 357.09375 C 330.55657 358.87766 332.8967 360.46668 334.21875 361.25 C 339.39351 364.31606 346.5172 366.53147 351.1875 367.875 L 361.125 357.9375 C 359.77209 353.28112 357.57469 346.18931 354.5 341 C 353.89893 339.98555 352.53084 337.96211 350.96875 335.75 A 9.2450243 9.2450243 0 0 1 350.875 325.21875 C 351.14648 324.8236 351.42171 324.42915 351.6875 324.03125 A 9.2450243 9.2450243 0 0 1 358.15625 323.125 C 361.14314 323.81868 363.91632 324.40723 365.4375 324.625 C 371.39168 325.47738 378.79606 324.79598 383.625 324.25 L 389.03125 311.25 C 385.99941 307.46579 381.264 301.77393 376.4375 298.15625 C 375.49397 297.44905 373.41472 296.10219 371.125 294.65625 A 9.2450243 9.2450243 0 0 1 367.125 288.9375 C 367.13274 288.90576 367.14857 288.87552 367.15625 288.84375 L 343 288.84375 C 340.88615 296.19621 337.87919 303.25744 333.96875 309.84375 C 333.2417 311.0683 332.44215 312.27866 331.65625 313.46875 C 331.11597 314.28691 330.56769 315.10535 330 315.90625 C 329.74193 316.27034 329.51368 316.6396 329.25 317 C 329.13356 317.15807 328.99245 317.31148 328.875 317.46875 C 328.75748 317.62716 328.61861 317.77982 328.5 317.9375 C 327.73624 318.94601 326.99261 319.93184 326.1875 320.90625 C 325.28137 322.00297 324.33174 323.07325 323.375 324.125 C 318.63464 329.33608 313.31368 334.03002 307.46875 338 C 307.41515 338.0363 307.33493 338.05765 307.28125 338.09375 C 304.91824 339.69126 302.45395 341.16243 299.9375 342.53125 C 299.24399 342.90622 298.55053 343.2669 297.84375 343.625 C 297.26893 343.91809 296.7069 344.21915 296.125 344.5 C 296.00413 344.558 295.87124 344.59876 295.75 344.65625 C 294.57416 345.21718 293.39092 345.73999 292.1875 346.25 C 292.00831 346.3256 291.83619 346.42547 291.65625 346.5 C 291.16924 346.70262 290.71005 346.8996 290.21875 347.09375 C 289.99783 347.18075 289.75247 347.28989 289.53125 347.375 C 289.07966 347.54923 288.64258 347.70799 288.1875 347.875 C 287.9328 347.9682 287.66132 348.03425 287.40625 348.125 C 286.97643 348.27832 286.55782 348.44691 286.125 348.59375 C 285.84813 348.68745 285.5585 348.75297 285.28125 348.84375 C 284.86916 348.97898 284.47719 349.12068 284.0625 349.25 C 283.75408 349.3461 283.43383 349.46997 283.125 349.5625 C 282.73907 349.67818 282.35684 349.76447 281.96875 349.875 C 281.63806 349.9692 281.29984 350.06612 280.96875 350.15625 C 280.59435 350.25817 280.22008 350.37163 279.84375 350.46875 C 279.50058 350.55735 279.15603 350.63449 278.8125 350.71875 C 278.44613 350.80855 278.08687 350.91476 277.71875 351 C 277.36441 351.0821 276.97965 351.14117 276.625 351.21875 C 276.5488 351.23545 276.48253 351.2336 276.40625 351.25 C 275.76076 351.38937 275.11507 351.53182 274.46875 351.65625 C 273.74538 351.79552 273.03663 351.94182 272.3125 352.0625 C 271.58837 352.18318 270.84958 352.27278 270.125 352.375 C 269.73985 352.4293 269.35545 352.51315 268.96875 352.5625 C 268.63451 352.6051 268.30301 352.6488 267.96875 352.6875 C 267.80368 352.7067 267.63409 352.70045 267.46875 352.71875 C 266.48421 352.82709 265.484 352.92517 264.5 353 C 264.19963 353.0228 263.89402 353.07405 263.59375 353.09375 C 263.14052 353.12375 262.70504 353.13305 262.25 353.15625 C 261.98287 353.16965 261.70451 353.1765 261.4375 353.1875 C 260.7142 353.2171 260.00346 353.2382 259.28125 353.25 C 258.756 353.259 258.21203 353.25078 257.6875 353.25 C 257.48808 353.25 257.29286 353.251 257.09375 353.25 C 255.65209 353.2382 254.24674 353.2068 252.8125 353.125 C 241.33861 352.47069 230.10371 349.59447 219.8125 344.75 C 218.5261 344.14444 217.28811 343.51021 216.03125 342.84375 C 215.12018 342.36063 214.23819 341.82715 213.34375 341.3125 C 212.85768 341.03281 212.35594 340.75766 211.875 340.46875 C 211.53868 340.26519 211.2084 340.05163 210.875 339.84375 C 210.04093 339.3276 209.19246 338.82519 208.375 338.28125 C 207.99102 338.0239 207.62974 337.76315 207.25 337.5 C 206.35975 336.8831 205.49135 336.2419 204.625 335.59375 C 203.48468 334.74064 202.34724 333.87434 201.25 332.96875 C 192.47201 325.72407 185.10424 316.81229 179.625 306.75 C 179.606 306.7151 179.5814 306.69115 179.5625 306.65625 C 178.89816 305.43233 178.26381 304.19502 177.65625 302.9375 C 177.12119 301.83007 176.61477 300.69473 176.125 299.5625 C 175.97127 299.20711 175.80544 298.85776 175.65625 298.5 C 175.45099 298.00446 175.25809 297.49713 175.0625 297 C 174.979 296.78885 174.8632 296.55568 174.78125 296.34375 C 174.68905 296.10404 174.62123 295.86505 174.53125 295.625 C 174.36376 295.18026 174.19175 294.72934 174.03125 294.28125 C 173.86872 293.82606 173.71711 293.39377 173.5625 292.9375 C 173.4658 292.65287 173.34383 292.34841 173.25 292.0625 C 173.2032 291.9195 173.171 291.7681 173.125 291.625 C 172.94085 291.05413 172.76654 290.48205 172.59375 289.90625 C 172.48627 289.5474 172.41375 289.20168 172.3125 288.84375 L 149.71875 288.84375 z "
       id="path4415"
       transform="translate(0,540.36218)" />
    <path
       style="fill:none;stroke:#000000;stroke-width:0.86885566px;stroke-linecap:butt;stroke-linejoin:miter;stroke-opacity:1"
       d="m 107.59489,609.96589 296.71459,0 c 0,0 -0.73442,241.99867 0,278.72077 0.73445,36.72211 -148.35729,98.04803 -148.35729,98.04803 0,0 -146.88842,-54.71594 -148.3573,-98.04803 -1.4689,-43.33208 0,-278.72077 0,-278.72077 z"
       id="path4315"
       inkscape:connector-curvature="0"
       sodipodi:nodetypes="ccscsc" />
    <path
       style="fill:#ddc072;fill-opacity:1;stroke:#000000;stroke-width:0.86885566px;stroke-linecap:butt;stroke-linejoin:miter;stroke-opacity:1"
       d="M 107.59375 53.9375 A 15.6313 15.6313 0 0 0 91.96875 69.5 C 91.96875 69.5 90.454216 303.24343 92 348.84375 C 92.662242 368.3799 106.25208 381.78082 121.625 394.125 C 136.99792 406.46918 156.17856 417.68065 175.15625 427.5 C 213.11162 447.13871 250.5 461 250.5 461 A 15.6313 15.6313 0 0 0 261.875 460.8125 C 261.875 460.8125 299.71267 445.2724 337.78125 424.875 C 356.81554 414.6763 375.94559 403.35343 391.09375 391.4375 C 398.66783 385.47954 405.27187 379.39964 410.5 372.625 C 415.72813 365.85036 420.13587 357.9182 419.9375 348 C 419.23469 312.85877 419.9375 69.625 419.9375 69.625 A 15.6313 15.6313 0 0 0 404.28125 53.9375 L 107.59375 53.9375 z M 107.59375 69.59375 L 404.3125 69.59375 C 404.3125 69.59375 403.57808 311.5904 404.3125 348.3125 C 405.04695 385.03461 255.9375 446.375 255.9375 446.375 C 255.9375 446.375 109.06263 391.64459 107.59375 348.3125 C 106.12485 304.98042 107.59375 69.59375 107.59375 69.59375 z "
       transform="translate(0,540.36218)"
       id="path4342" />
    <path
       style="fill:#efd180;fill-opacity:1;fill-rule:nonzero;stroke:#000000;stroke-width:2.46895337;stroke-linejoin:round;stroke-miterlimit:4;stroke-opacity:0.0982143;stroke-dasharray:none;stroke-dashoffset:0"
       d="m -225.10267,728.81883 c -2.34148,4.24847 -5.82016,10.84954 -7.31503,16.69159 -0.30064,1.17504 -0.68103,3.13769 -1.06401,5.28677 a 9.2450243,9.2450243 0 0 1 -3.82377,5.95178 c -0.7372,0.13758 -1.49407,0.2798 -2.22776,0.43226 a 9.2450243,9.2450243 0 0 1 -9.6093,-4.02328 c -0.98177,-1.51718 -1.87691,-2.80119 -2.59351,-3.75726 -3.62067,-4.83053 -9.34955,-9.60004 -13.13382,-12.63507 l -13.00082,5.35328 c -0.53743,4.82111 -1.22032,12.25168 -0.36575,18.22109 0.17192,1.20065 0.56217,3.15474 1.03075,5.28678 a 9.2450243,9.2450243 0 0 1 -3.72402,9.5428 c -0.56883,0.40037 -1.1343,0.78573 -1.69575,1.197 a 9.2450243,9.2450243 0 0 1 -6.71654,-1.56275 c -2.075,-1.46525 -4.06115,-2.76508 -5.28678,-3.49127 -5.18201,-3.07036 -12.25661,-5.29589 -16.92433,-6.65004 l -9.97506,9.97506 c 1.35415,4.66773 3.57969,11.74234 6.65004,16.92433 0.75819,1.27965 2.35045,3.59336 4.15627,6.11804 a 9.2450243,9.2450243 0 0 1 1.66251,6.35078 c -0.26602,0.39815 -0.53656,0.79454 -0.79801,1.197 a 9.2450243,9.2450243 0 0 1 -9.7423,3.95677 c -2.47777,-0.55963 -4.8408,-0.99512 -6.25103,-1.197 -5.96254,-0.85357 -13.32396,-0.20269 -18.15459,0.3325 l -5.41978,13.03407 c 3.03734,3.79422 7.81538,9.488 12.63507,13.10057 1.19017,0.89209 3.55002,2.41509 6.18453,4.05652 a 9.2450243,9.2450243 0 0 1 4.22277,9.3433 c -0.0343,0.20914 -0.0667,0.4226 -0.0998,0.63175 a 9.2450243,9.2450243 0 0 1 -6.01828,3.69077 c -3.38747,0.54725 -6.4844,1.13749 -8.14629,1.56276 -5.83808,1.49385 -12.46829,4.96527 -16.72484,7.31503 l 0.0665,14.06483 c 4.24846,2.34148 10.84952,5.82016 16.69159,7.31503 1.91706,0.49056 5.23052,1.11518 8.91104,1.69576 a 9.2450243,9.2450243 0 0 1 6.11803,3.82377 9.2450243,9.2450243 0 0 1 -4.28927,9.24355 c -2.92018,1.80192 -5.57663,3.5264 -6.94929,4.55527 -4.82199,3.61428 -9.60173,9.36726 -12.63506,13.16707 l 5.45303,12.96757 c 4.8211,0.53743 12.25167,1.22033 18.22109,0.36575 1.95887,-0.28041 5.25525,-0.98993 8.8778,-1.86201 a 9.2450243,9.2450243 0 0 1 8.81129,2.59352 9.2450243,9.2450243 0 0 1 -1.42975,7.84704 c -2.33141,3.19513 -4.41694,6.17735 -5.38653,7.81379 -3.07856,5.19583 -5.29976,12.29894 -6.65004,16.95758 l 9.97506,9.94181 c 4.65864,-1.35028 11.76175,-3.57147 16.95758,-6.65004 1.69478,-1.00416 4.65157,-3.04594 7.81379,-5.35328 a 9.2450243,9.2450243 0 0 1 8.4788,-1.23025 9.2450243,9.2450243 0 0 1 2.09476,8.27929 c -0.93122,3.84411 -1.72546,7.42713 -1.99501,9.31005 -0.85586,5.97844 -0.20279,13.36709 0.3325,18.18784 l 13.03407,5.38653 c 3.78729,-3.03028 9.47836,-7.80248 13.10057,-12.63506 1.18149,-1.5763 3.14848,-4.60497 5.18702,-7.9468 a 9.2450243,9.2450243 0 0 1 6.61679,-4.32252 9.2450243,9.2450243 0 0 1 5.85203,7.18204 c 0.58058,3.68046 1.20516,6.99369 1.69576,8.91104 1.49487,5.84203 4.97354,12.44317 7.31503,16.69157 l 14.06483,0 c 2.33475,-4.2522 5.78528,-10.84317 7.28178,-16.69157 0.47301,-1.84861 1.10166,-4.84736 1.62926,-8.11304 a 9.2450243,9.2450243 0 0 1 6.88279,-7.48129 9.2450243,9.2450243 0 0 1 5.85203,4.18953 c 1.94484,3.17812 3.80053,5.99737 4.98752,7.58104 3.61674,4.82526 9.34475,9.57279 13.13382,12.60181 l 13.00082,-5.38653 c 0.52979,-4.82199 1.18799,-12.21195 0.3325,-18.18784 -0.27044,-1.88891 -0.83372,-4.89404 -1.59601,-8.11304 a 9.2450243,9.2450243 0 0 1 1.19701,-7.11554 c 0.12326,-0.0758 0.24269,-0.15641 0.36575,-0.23275 a 9.2450243,9.2450243 0 0 1 10.2743,0.3325 c 2.49407,1.78391 4.82924,3.37295 6.15129,4.15627 5.17476,3.06606 12.28728,5.27326 16.95758,6.61679 l 9.94181,-9.94181 c -1.35291,-4.65638 -3.5421,-11.73502 -6.61679,-16.92433 -0.60107,-1.01445 -1.99568,-3.04142 -3.55777,-5.25353 a 9.2450243,9.2450243 0 0 1 -0.0665,-10.54031 c 0.27148,-0.39515 0.53222,-0.7991 0.79801,-1.197 a 9.2450243,9.2450243 0 0 1 6.48378,-0.89776 c 2.98689,0.69368 5.76061,1.27849 7.28179,1.49626 5.95418,0.85238 13.358899,0.18023 18.187839,-0.36575 l 5.38653,-13.00082 c -3.03184,-3.78421 -7.77531,-9.48289 -12.60181,-13.10057 -0.943529,-0.7072 -2.997059,-2.04532 -5.286779,-3.49126 a 9.2450243,9.2450243 0 0 1 -4.02327,-5.71903 c 0.1641,-0.67254 0.31417,-1.35342 0.4655,-2.02826 a 9.2450243,9.2450243 0 0 1 7.38154,-7.08229 c 2.235499,-0.39842 4.229759,-0.76029 5.286769,-1.03076 5.84517,-1.49567 12.465,-4.97216 16.72484,-7.31503 l -0.0665,-14.03158 c -4.24056,-2.34648 -10.8489,-5.85325 -16.69159,-7.34828 -1.05885,-0.27096 -2.56364,-0.58965 -4.42227,-0.93101 a 9.2450243,9.2450243 0 0 1 -7.414789,-7.34829 c -0.14777,-0.77744 -0.30092,-1.55301 -0.4655,-2.32751 a 9.2450243,9.2450243 0 0 1 4.02327,-5.71903 c 1.91287,-1.22358 3.61573,-2.30488 4.488779,-2.95926 4.82786,-3.61868 9.59606,-9.37237 12.63506,-13.16707 l -5.41978,-12.93432 c -4.81573,-0.54508 -12.284279,-1.25367 -18.254339,-0.399 -1.08195,0.15488 -2.5745,0.43536 -4.42228,0.83125 a 9.2450243,9.2450243 0 0 1 -8.01329,-2.09476 c -0.26117,-0.40815 -0.53096,-0.82469 -0.798,-1.23025 a 9.2450243,9.2450243 0 0 1 0.0998,-10.30756 c 0.88292,-1.28797 1.62489,-2.51741 2.26101,-3.59102 3.07036,-5.18198 5.2959,-12.25661 6.65004,-16.92433 l -9.97506,-9.97506 c -4.6703,1.34353 -11.78285,3.55073 -16.95758,6.61679 -1.00777,0.59713 -2.21813,1.34264 -3.55777,2.26101 a 9.2450243,9.2450243 0 0 1 -10.17455,0.16625 9.2450243,9.2450243 0 0 1 -0.13301,-0.0665 9.2450243,9.2450243 0 0 1 -3.22526,-9.11055 c 0.32283,-1.5278 0.55464,-2.95421 0.7315,-4.18952 0.85358,-5.9625 0.20271,-13.35721 -0.3325,-18.18784 l -13.03407,-5.38653 c -3.80065,3.02851 -9.52632,7.78886 -13.13382,12.60182 -0.70254,0.93733 -1.54104,2.09688 -2.42726,3.45801 a 9.2450243,9.2450243 0 0 1 -9.4763,4.02327 c -0.52526,-0.1008 -1.07046,-0.17301 -1.59601,-0.266 a 9.2450243,9.2450243 0 0 1 -4.88777,-6.58353 c -0.32644,-1.7774 -0.66807,-3.29799 -0.96426,-4.45552 -1.49649,-5.84839 -4.94703,-12.43941 -7.28178,-16.69159 l -14.06483,-0.0332 z m 5.45303,50.54026 c 2.16666,-0.0355 4.33243,0.0103 6.48379,0.133 1.43423,0.0818 2.8649,0.18169 4.28927,0.3325 8.54618,0.90487 16.89046,3.05571 24.77138,6.31754 1.31348,0.54364 2.60386,1.12345 3.89027,1.729 1.10712,0.52117 2.2064,1.06294 3.29176,1.62926 0.17577,0.0917 0.35684,0.17312 0.53201,0.266 0.0656,0.0351 0.13402,0.0645 0.1995,0.0998 0.47251,0.25207 0.92844,0.53742 1.3965,0.79801 0.90257,0.50672 1.81041,1.02579 2.69327,1.56276 1.22081,0.74252 2.44276,1.4955 3.62427,2.29426 12.99654,8.7863 23.55013,20.91847 30.4239,35.14543 0.62489,1.29336 1.23253,2.59646 1.79551,3.92352 0.2815,0.66353 0.53234,1.35666 0.79801,2.02826 0.0836,0.21253 0.18413,0.41894 0.266,0.63176 0.17869,0.46215 0.36088,0.93068 0.532,1.3965 0.0891,0.24365 0.17921,0.48753 0.266,0.73151 0.1553,0.43471 0.28359,0.85898 0.43226,1.29675 0.0969,0.28627 0.2054,0.57784 0.29925,0.86451 0.13265,0.40421 0.27203,0.82353 0.399,1.23025 0.0936,0.30082 0.17579,0.59655 0.266,0.89776 0.11952,0.39773 0.21845,0.79697 0.3325,1.197 0.18743,0.65742 0.39276,1.29828 0.56526,1.96176 0.0116,0.0445 0.0217,0.0884 0.0332,0.13301 0.0114,0.0442 0.0219,0.0888 0.0333,0.133 0.1705,0.6644 0.31014,1.32476 0.4655,1.99501 0.0826,0.35677 0.18795,0.70691 0.266,1.064 0.0795,0.36319 0.15778,0.73244 0.23275,1.09726 0.0728,0.35501 0.13117,0.70875 0.1995,1.064 0.0719,0.37292 0.1323,0.75598 0.1995,1.13051 0.13057,0.72771 0.25313,1.46084 0.36575,2.19451 0.11263,0.73367 0.20482,1.45511 0.29926,2.19451 0.0426,0.33488 0.0943,0.66262 0.133,0.99751 0.0475,0.40915 0.0911,0.81944 0.133,1.23025 0.0323,0.31831 0.071,0.646 0.0998,0.96426 0.0385,0.42339 0.0672,0.83845 0.0997,1.2635 0.0228,0.30079 0.0468,0.59708 0.0665,0.89776 0.0301,0.4535 0.0765,0.90795 0.0997,1.36326 0.0133,0.26683 0.0224,0.53129 0.0333,0.798 0.0208,0.49351 0.0206,1.00074 0.0333,1.49626 0.005,0.22983 -0.004,0.46853 0,0.69825 0.009,0.5263 0.0333,1.0343 0.0333,1.56276 -3.5e-4,0.19966 0.002,0.39896 0,0.5985 -8.1e-4,0.12167 10e-4,0.2442 0,0.36576 -0.19974,15.72772 -4.59972,31.05642 -12.53531,44.42223 -0.72705,1.22455 -1.50837,2.43417 -2.29427,3.62426 -0.54028,0.81816 -1.09482,1.62637 -1.66251,2.42727 -0.25807,0.36409 -0.50107,0.73685 -0.76475,1.09725 -0.11644,0.15807 -0.2483,0.30823 -0.36575,0.4655 -0.11752,0.15841 -0.24714,0.30783 -0.36575,0.46551 -0.76376,1.00851 -1.52241,1.98485 -2.32752,2.95926 -0.90613,1.09672 -1.83627,2.17352 -2.79301,3.22527 -4.74036,5.21108 -10.0819,9.89534 -15.92683,13.86532 -0.0536,0.0363 -0.11257,0.0636 -0.16625,0.0997 -2.36301,1.59751 -4.83184,3.0867 -7.34829,4.45552 -0.69351,0.37497 -1.38798,0.73916 -2.09476,1.09726 -0.57482,0.29309 -1.14711,0.58365 -1.72901,0.8645 -0.12087,0.058 -0.24451,0.10877 -0.36575,0.16626 -1.17584,0.56093 -2.35435,1.08599 -3.55777,1.596 -0.17919,0.0756 -0.35206,0.15822 -0.532,0.23275 -0.48701,0.20262 -0.97171,0.40436 -1.46301,0.59851 -0.22092,0.087 -0.44379,0.18089 -0.66501,0.266 -0.45159,0.17423 -0.90817,0.33174 -1.36325,0.49875 -0.2547,0.0932 -0.50969,0.17525 -0.76476,0.266 -0.42982,0.15332 -0.86393,0.31867 -1.29675,0.46551 -0.27687,0.0937 -0.55401,0.17522 -0.83126,0.266 -0.41209,0.13523 -0.81556,0.26968 -1.23025,0.399 -0.30842,0.0961 -0.62218,0.20672 -0.93101,0.29925 -0.38593,0.11568 -0.77566,0.22197 -1.16375,0.3325 -0.33069,0.0942 -0.66642,0.17587 -0.99751,0.266 -0.3744,0.10192 -0.75418,0.20214 -1.13051,0.29926 -0.34317,0.0886 -0.68722,0.18174 -1.03075,0.266 -0.36637,0.0898 -0.72914,0.18076 -1.09726,0.266 -0.35434,0.0821 -0.70935,0.15517 -1.064,0.23275 -0.0762,0.0167 -0.15647,0.0168 -0.23275,0.0332 -0.64549,0.13937 -1.28219,0.27457 -1.92851,0.399 -0.72337,0.13927 -1.43713,0.27832 -2.16126,0.399 -0.72413,0.12068 -1.46994,0.23029 -2.19452,0.33251 -0.38515,0.0543 -0.77705,0.1169 -1.16375,0.16625 -0.33424,0.0426 -0.66325,0.0943 -0.99751,0.133 -0.16507,0.0192 -0.33341,0.015 -0.49875,0.0333 -0.98454,0.10834 -1.97526,0.22442 -2.95926,0.29925 -0.30037,0.0228 -0.59749,0.0468 -0.89776,0.0665 -0.45323,0.03 -0.90822,0.0433 -1.36326,0.0665 -0.26713,0.0134 -0.53099,0.0223 -0.798,0.0333 -0.7233,0.0296 -1.43905,0.0547 -2.16126,0.0665 -0.52525,0.009 -1.07148,7.8e-4 -1.59601,0 -0.19942,0 -0.39939,10e-4 -0.5985,0 -1.44166,-0.0118 -2.85504,-0.0512 -4.28928,-0.133 -11.47389,-0.65431 -22.69296,-3.53457 -32.98417,-8.37904 -1.2864,-0.60556 -2.53366,-1.2288 -3.79052,-1.89526 -0.91107,-0.48312 -1.79882,-1.01486 -2.69326,-1.52951 -0.48607,-0.27969 -0.98207,-0.54235 -1.46301,-0.83126 -0.33632,-0.20356 -0.6641,-0.42387 -0.9975,-0.63175 -0.83407,-0.51615 -1.67631,-1.01882 -2.49377,-1.56276 -0.38398,-0.25735 -0.75076,-0.53485 -1.1305,-0.798 -0.89025,-0.6169 -1.76041,-1.24711 -2.62676,-1.89526 -1.14032,-0.85311 -2.26103,-1.72118 -3.35827,-2.62677 -8.77799,-7.24468 -16.16662,-16.13884 -21.64586,-26.20113 -0.019,-0.0349 -0.0476,-0.0649 -0.0665,-0.0998 -0.66434,-1.22392 -1.2877,-2.4665 -1.89526,-3.72402 -0.53506,-1.10743 -1.03974,-2.25929 -1.52951,-3.39152 -0.15373,-0.35539 -0.31631,-0.70624 -0.4655,-1.064 -0.20526,-0.49554 -0.40292,-0.99913 -0.59851,-1.49626 -0.0835,-0.21115 -0.18405,-0.41982 -0.266,-0.63175 -0.0922,-0.23971 -0.17602,-0.49146 -0.266,-0.73151 -0.16749,-0.44474 -0.33825,-0.88192 -0.49875,-1.33001 -0.16253,-0.45519 -0.3109,-0.90698 -0.46551,-1.36325 -0.0967,-0.28463 -0.20542,-0.5786 -0.29925,-0.86451 -0.0468,-0.143 -0.087,-0.28915 -0.133,-0.43225 -0.18415,-0.57087 -0.35921,-1.15321 -0.532,-1.72901 -0.11713,-0.39106 -0.22107,-0.77207 -0.3325,-1.16375 -0.14885,-0.52211 -0.29281,-1.03681 -0.43225,-1.56276 -0.13802,-0.52155 -0.27095,-1.04037 -0.39901,-1.56276 -0.0925,-0.37748 -0.17865,-0.75264 -0.266,-1.13051 -0.0801,-0.34571 -0.15668,-0.68351 -0.23275,-1.03075 -0.15786,-0.72229 -0.32638,-1.47117 -0.4655,-2.19451 -0.0706,-0.36705 -0.1337,-0.73 -0.1995,-1.09726 -0.13057,-0.72771 -0.25313,-1.46084 -0.36575,-2.19451 -0.11263,-0.73367 -0.20482,-1.45511 -0.29926,-2.19451 -0.0437,-0.3425 -0.0932,-0.68706 -0.133,-1.03076 -0.0322,-0.27909 -0.0702,-0.55217 -0.0998,-0.83125 -0.02,-0.18784 -0.0477,-0.37707 -0.0665,-0.56525 -0.0685,-0.6906 -0.11422,-1.37125 -0.16625,-2.06151 -0.0223,-0.29116 -0.0471,-0.57259 -0.0665,-0.86451 -0.001,-0.0219 10e-4,-0.0446 0,-0.0665 -0.0922,-1.42611 -0.14347,-2.86682 -0.16625,-4.28927 -0.26602,-16.60928 4.1743,-32.90016 12.53532,-46.98249 0.72704,-1.22456 1.47511,-2.40093 2.26101,-3.59102 0.78589,-1.19009 1.61679,-2.37134 2.46051,-3.52452 0.13581,-0.18563 0.2617,-0.38063 0.399,-0.56525 0.29428,-0.39292 0.59716,-0.77589 0.89776,-1.16376 0.57137,-0.73728 1.13524,-1.47586 1.72901,-2.19451 0.7713,-0.93352 1.55269,-1.85872 2.36076,-2.75977 0.1246,-0.13967 0.27346,-0.26006 0.399,-0.399 0.0584,-0.0643 0.10769,-0.13539 0.16625,-0.1995 6.67018,-7.30164 14.55638,-13.49371 23.30837,-18.25434 0.0349,-0.019 0.0648,-0.0476 0.0998,-0.0665 1.22434,-0.66386 2.46611,-1.28815 3.72402,-1.89526 1.29377,-0.62443 2.5961,-1.19971 3.92352,-1.76226 0.1783,-0.0756 0.35312,-0.15833 0.532,-0.23275 0.35313,-0.14627 0.71007,-0.29089 1.06401,-0.43226 0.17976,-0.072 0.35166,-0.16183 0.532,-0.23275 0.62788,-0.24609 1.26502,-0.46747 1.89526,-0.69825 0.67959,-0.2494 1.37432,-0.49839 2.06151,-0.73151 0.29016,-0.0984 0.57302,-0.20375 0.86451,-0.29925 0.40137,-0.13142 0.79488,-0.24039 1.197,-0.36575 0.31038,-0.0968 0.6192,-0.20579 0.93101,-0.29925 0.25275,-0.0757 0.51174,-0.12616 0.76475,-0.1995 0.42954,-0.12455 0.8646,-0.24755 1.29676,-0.36575 0.12193,-0.0334 0.24376,-0.067 0.36575,-0.0998 0.38558,-0.10368 0.77615,-0.20068 1.16376,-0.29926 0.38857,-0.0988 0.77473,-0.20591 1.16375,-0.29925 0.49628,-0.11901 0.99684,-0.22188 1.49626,-0.3325 0.4398,-0.0975 0.88979,-0.20875 1.33001,-0.29925 0.36721,-0.0754 0.72844,-0.16193 1.09725,-0.23275 0.14431,-0.0278 0.28791,-0.0394 0.43226,-0.0665 0.57474,-0.1074 1.15047,-0.20304 1.729,-0.29925 0.3684,-0.0614 0.72873,-0.14289 1.09726,-0.1995 0.13197,-0.0202 0.26684,-0.0469 0.399,-0.0665 0.6026,-0.0896 1.22233,-0.15537 1.82876,-0.23276 0.34252,-0.0437 0.68706,-0.0932 1.03076,-0.133 0.40152,-0.0465 0.7955,-0.0921 1.197,-0.133 0.0782,-0.008 0.1545,-0.0255 0.23275,-0.0332 0.60119,-0.0596 1.19456,-0.0859 1.79551,-0.133 0.0676,-0.005 0.13187,-0.0281 0.1995,-0.0332 0.64081,-0.0487 1.2882,-0.0651 1.92851,-0.0997 0.38853,-0.0212 0.77395,-0.0503 1.16376,-0.0665 0.7233,-0.0297 1.43905,-0.0547 2.16126,-0.0665 z"
       id="path4369-3"
       inkscape:connector-curvature="0" />
    <path
       style="fill:#efd180;fill-opacity:1;stroke:#000000;stroke-width:1px;stroke-linecap:butt;stroke-linejoin:miter;stroke-opacity:0.67261903"
       d="m 216.14419,863.06402 c -4.28779,-4.2878 75.69725,-89.93427 86.69472,-101.96766 13.79045,-15.08945 21.80111,-21.23349 31.16981,-26.04044 3.67584,-1.88602 11.42875,7.55099 10.14357,10.14357 -4.36716,8.80992 -12.64399,17.88457 -25.86763,30.99698 -11.63559,11.53773 -97.85267,91.15535 -102.14047,86.86755 z"
       id="path4419-1"
       inkscape:connector-curvature="0"
       sodipodi:nodetypes="zssssz"
       inkscape:transform-center-x="-24.225699"
       inkscape:transform-center-y="-24.15135" />
    <path
       style="fill:#efd180;fill-opacity:1;stroke:#000000;stroke-width:1px;stroke-linecap:butt;stroke-linejoin:miter;stroke-opacity:1"
       d="m 368.57804,711.69083 -17.58928,17.58928 c 0,0 -0.2178,1.71783 -0.77339,2.58536 -0.55561,0.86753 -2.37707,0.78045 -3.0494,0.13258 -0.67233,-0.64786 -0.71952,-2.43193 0.17677,-3.0052 0.89629,-0.57327 2.58536,-0.7734 2.58536,-0.7734 l 17.58928,-17.58928 -20.81545,6.45235 -9.8774,18.31848 6.98268,6.98268 18.31849,-9.8774 z"
       id="path4428-9"
       inkscape:connector-curvature="0"
       sodipodi:nodetypes="ccscsccccccc"
       inkscape:transform-center-x="-96.790774"
       inkscape:transform-center-y="-96.66422" />
    <path
       style="fill:#efd180;fill-opacity:1;stroke:#000000;stroke-width:1px;stroke-linecap:butt;stroke-linejoin:miter;stroke-opacity:0.67261903"
       d="m 295.80339,862.93747 c -4.2878,4.28779 -89.93427,-75.69725 -101.96766,-86.69472 -15.08945,-13.79045 -21.23349,-21.80111 -26.04044,-31.16981 -1.88602,-3.67584 7.55099,-11.42875 10.14357,-10.14357 8.80992,4.36716 17.88457,12.64399 30.99698,25.86763 11.53773,11.63559 91.15535,97.85267 86.86755,102.14047 z"
       id="path4419-1-2"
       inkscape:connector-curvature="0"
       sodipodi:nodetypes="zssssz"
       inkscape:transform-center-x="24.151346"
       inkscape:transform-center-y="-24.225695" />
    <path
       style="fill:#efd180;fill-opacity:1;stroke:#000000;stroke-width:1px;stroke-linecap:butt;stroke-linejoin:miter;stroke-opacity:1"
       d="m 144.4302,710.50362 17.58928,17.58928 c 0,0 1.71783,0.2178 2.58536,0.77339 0.86753,0.55561 0.78045,2.37707 0.13258,3.0494 -0.64786,0.67233 -2.43193,0.71952 -3.0052,-0.17677 -0.57327,-0.89629 -0.7734,-2.58536 -0.7734,-2.58536 l -17.58928,-17.58928 6.45235,20.81545 18.31848,9.8774 6.98268,-6.98268 -9.8774,-18.31849 z"
       id="path4428-9-6"
       inkscape:connector-curvature="0"
       sodipodi:nodetypes="ccscsccccccc"
       inkscape:transform-center-x="96.664216"
       inkscape:transform-center-y="-96.79077" />
    <path
       style="fill:#efd180;fill-opacity:1;stroke:#000000;stroke-width:1px;stroke-linecap:butt;stroke-linejoin:miter;stroke-opacity:0.67261903"
       d="m 256,339.13652 c -6.06386,0 -10.0671,-117.11917 -10.7996,-133.40444 -0.91853,-20.42118 0.40137,-30.43006 3.62701,-40.45376 1.26559,-3.93283 13.4207,-2.74199 14.34518,0 3.1415,9.3176 3.70565,21.58695 3.627,40.20935 -0.0692,16.38601 -4.73573,133.64885 -10.79959,133.64885 z"
       id="path4419"
       inkscape:connector-curvature="0"
       transform="translate(0,540.36218)"
       sodipodi:nodetypes="zssssz"
       inkscape:transform-center-x="0.049916827"
       inkscape:transform-center-y="-31.862876" />
    <path
       style="fill:#efd180;fill-opacity:1;stroke:#000000;stroke-width:1px;stroke-linecap:butt;stroke-linejoin:miter;stroke-opacity:1"
       d="m 256.75,124.3125 0,24.875 c 0,0 1.06068,1.3687 1.28125,2.375 0.22057,1.00631 -1.12898,2.2327 -2.0625,2.25 -0.93352,0.0173 -2.22841,-1.21086 -2,-2.25 0.22841,-1.03913 1.28125,-2.375 1.28125,-2.375 l 0,-24.875 -10.15625,19.28125 5.96875,19.9375 9.875,0 5.96875,-19.9375 z"
       transform="translate(0,540.36218)"
       id="path4428"
       inkscape:connector-curvature="0"
       sodipodi:nodetypes="ccscsccccccc"
       inkscape:transform-center-x="-0.089488652"
       inkscape:transform-center-y="-138.88709" />
  </g>
</svg>
